<?xml version="1.0" standalone="no"?>
<!DOCTYPE svg PUBLIC "-//W3C//DTD SVG 1.1//EN" "http://www.w3.org/Graphics/SVG/1.1/DTD/svg11.dtd" >
<svg xmlns="http://www.w3.org/2000/svg">
<metadata>
Created by FontPrep 20130207 at Sat Dec  6 16:55:19 2014
 By Lawrence Chin
Copyright (c) 1989, 1995, 2002 Adobe Systems Incorporated.  All Rights Reserved. (c) 1981, 1995, 2002 Heidelberger Druckmaschinen AG. All rights reserved.
</metadata>
<defs>
<font id="16942b001d1c5a1b77694d27e48bb1ff" horiz-adv-x='1024' >
  <font-face 
    font-family="AvenirLTStd-MediumOblique"
    font-weight="600"
    font-style="oblique"
    font-stretch="normal"
    units-per-em="2048"
    panose-1="2 11 6 3 2 2 3 2 2 4"
    ascent="1548"
    descent="-500"
    x-height="971"
    cap-height="1450"
    bbox="-340 -578 2173 1892"
    underline-thickness="102"
    underline-position="-102"
    slope="-8"
    unicode-range="U+0020-FB02"
  />
<missing-glyph horiz-adv-x="1224" 
d="M303 1239v-1044l348 522zM365 102h696l-348 523zM774 717l348 -522v1044zM713 809l348 522h-696zM201 0v1434h1024v-1434h-1024z" />
    <glyph glyph-name="fi" unicode="fi" 
d="M764 1573q78 0 135 -14l-43 -164q-44 18 -120 18t-116 -53t-55 -166l-30 -223h219l-23 -160h-221l-115 -811h-184l115 811h-209l22 160h209l31 217q27 199 117 292t268 93zM1098 1452q56 0 89 -40t25 -95t-53 -95t-100 -40t-90 40t-27 95t54 95t102 40zM799 0l137 971
h184l-137 -971h-184z" />
    <glyph glyph-name="fl" unicode="fl" 
d="M764 1573q78 0 135 -14l-43 -164q-44 18 -120 18t-116 -53t-55 -166l-30 -223h219l-23 -160h-221l-115 -811h-184l115 811h-209l22 160h209l31 217q27 199 117 292t268 93zM801 0l217 1548h184l-217 -1548h-184z" />
    <glyph glyph-name=".notdef" horiz-adv-x="1224" 
d="M303 1239v-1044l348 522zM365 102h696l-348 523zM774 717l348 -522v1044zM713 809l348 522h-696zM201 0v1434h1024v-1434h-1024z" />
    <glyph glyph-name=".null" horiz-adv-x="0" 
 />
    <glyph glyph-name="nonmarkingreturn" horiz-adv-x="681" 
 />
    <glyph glyph-name="space" unicode=" " horiz-adv-x="569" 
 />
    <glyph glyph-name="exclam" unicode="!" horiz-adv-x="569" 
d="M322 258q56 0 89 -40t25 -95t-53 -95t-100 -40t-90 40t-27 95t54 95t102 40zM584 1450l-146 -1032h-196l145 1032h197z" />
    <glyph glyph-name="quotedbl" unicode="&#x22;" horiz-adv-x="1062" 
d="M737 946l72 504h160l-72 -504h-160zM432 946l72 504h160l-72 -504h-160z" />
    <glyph glyph-name="numbersign" unicode="#" 
d="M831 872h-237l-82 -294h238zM188 0l117 418h-194l22 160h217l82 294h-194l22 160h217l117 418h162l-117 -418h238l116 418h162l-117 -418h195l-23 -160h-217l-82 -294h195l-23 -160h-217l-116 -418h-162l117 418h-238l-117 -418h-162z" />
    <glyph glyph-name="dollar" unicode="$" 
d="M702 623l-67 -476q109 12 187 77t92 163q13 99 -45 149t-167 87zM623 848l63 455q-102 -17 -171 -77t-81 -155q-22 -160 189 -223zM842 1622l-21 -147q256 0 383 -158l-166 -143q-80 125 -241 129l-68 -484l-4 -2q103 -29 165 -55t126 -74q126 -93 98 -282
q-27 -189 -171 -305t-333 -126l-20 -147h-111l21 147q-299 0 -422 197l178 141q32 -77 106 -119t162 -47l72 504q-186 49 -284 145t-74 270q25 173 161 284q137 111 312 125l20 147h111z" />
    <glyph glyph-name="percent" unicode="%" horiz-adv-x="1744" 
d="M1597 1452l-1124 -1515l-115 63l1125 1516zM1323 123q84 0 153 59q70 60 80 144t-40 143q-52 59 -136 59t-152 -59t-78 -143q-11 -84 39 -144t134 -59zM1404 688q150 0 241 -106q89 -106 69 -256t-141 -256t-272 -106t-241 104q-90 106 -71 258q23 152 144 257t271 105z
M567 922q84 0 152 59t80 143t-39 144t-135 59q-84 1 -152 -59t-80 -144t39 -143t135 -59zM544 762q-150 0 -241 106t-69 257t143 256t271 105t241 -106q90 -106 68 -257q-23 -151 -143 -256t-270 -105z" />
    <glyph glyph-name="ampersand" unicode="&#x26;" horiz-adv-x="1478" 
d="M596 135q168 0 348 184l-299 365q-117 -63 -171 -108q-98 -80 -113 -186q-15 -105 57 -180t178 -75zM825 1303q-80 -1 -141 -47t-72 -123q-14 -100 109 -242q74 39 116 63t90 78t56 120t-35 109q-43 42 -123 42zM565 -37q-231 0 -336 123q-104 123 -79 297
q37 258 389 416q-72 90 -105 165t-18 171q22 159 146 249t287 90t258 -84q95 -85 73 -243q-31 -215 -355 -373l246 -299l223 297h224l-342 -434l282 -338h-264l-152 193q-114 -117 -226 -173t-251 -57z" />
    <glyph glyph-name="quotesingle" unicode="'" horiz-adv-x="569" 
d="M569 1450l-71 -504h-160l72 504h159z" />
    <glyph glyph-name="parenleft" unicode="(" horiz-adv-x="569" 
d="M608 1499l113 -78q-170 -217 -258 -405t-123 -426q-63 -469 147 -828l-135 -81q-242 410 -172 909q35 238 145 474q109 236 283 435z" />
    <glyph glyph-name="parenright" unicode=")" horiz-adv-x="569" 
d="M127 -319l-113 77q170 218 258 406t121 426q68 467 -145 827l135 82q244 -410 170 -909q-33 -236 -143 -472t-283 -437z" />
    <glyph glyph-name="asterisk" unicode="*" horiz-adv-x="950" 
d="M756 1450l-43 -301l297 96l24 -137l-297 -92l146 -244l-125 -84l-152 250l-215 -246l-102 84l217 240l-279 98l64 133l274 -98l43 301h148z" />
    <glyph glyph-name="plus" unicode="+" horiz-adv-x="1363" 
d="M211 541l22 159h467l66 467h160l-66 -467h467l-22 -159h-467l-66 -467h-160l66 467h-467z" />
    <glyph glyph-name="comma" unicode="," horiz-adv-x="569" 
d="M471 233l-244 -503h-168l213 503h199z" />
    <glyph glyph-name="hyphen" unicode="-" horiz-adv-x="647" 
d="M657 582l-24 -172h-504l25 172h503z" />
    <glyph glyph-name="period" unicode="." horiz-adv-x="569" 
d="M283 -12q-55 0 -90 40t-27 95t54 95t102 40t89 -40t25 -95t-53 -95t-100 -40z" />
    <glyph glyph-name="slash" unicode="/" horiz-adv-x="796" 
d="M1006 1487l-875 -1577l-137 53l878 1577z" />
    <glyph glyph-name="zero" unicode="0" 
d="M590 147q78 0 142 43q64 42 105 104q40 62 75 160t56 231q21 134 22 218t-13 183q-13 100 -71 158t-154 59q-301 0 -383 -578q-40 -281 16 -430q23 -61 75 -105t130 -43zM763 1475q132 -1 216 -49q270 -156 192 -701q-51 -367 -226 -574q-65 -77 -163 -126t-217 -49
t-203 48q-84 50 -126 127q-115 207 -64 574q36 267 164 492q68 119 182 189t245 69z" />
    <glyph glyph-name="one" unicode="1" 
d="M553 0l172 1225l-301 -246l-94 137l450 334h174l-204 -1450h-197z" />
    <glyph glyph-name="two" unicode="2" 
d="M798 1487q196 -1 312 -105t86 -297q-18 -129 -99 -233t-216 -219l-541 -461h729l-25 -172h-950l29 209l663 577q182 156 201 297q14 103 -48 167q-61 64 -167 64t-185 -58q-79 -60 -112 -164l-211 18q54 186 196 282t338 95z" />
    <glyph glyph-name="three" unicode="3" 
d="M792 1487q170 1 283 -101t86 -294q-14 -113 -97 -204t-198 -124v-4q128 -23 190 -124t44 -241q-29 -199 -184 -309t-343 -111q-389 0 -438 316l215 63q23 -110 75 -158t166 -48t206 73q92 75 106 175q26 186 -102 240q-103 44 -264 44l22 172q213 0 300 55t103 170
t-42 176t-152 61t-166 -45q-72 -46 -115 -122l-192 67q74 133 201 203q126 70 296 70z" />
    <glyph glyph-name="four" unicode="4" 
d="M758 492l100 725h-4l-543 -725h447zM688 0l45 319h-618l28 201l709 930h238l-136 -958h205l-24 -173h-205l-45 -319h-197z" />
    <glyph glyph-name="five" unicode="5" 
d="M696 934q202 0 308 -133t75 -346t-195 -346t-382 -134q-152 0 -258 77t-138 216l209 68q47 -188 242 -189q121 0 213 81q92 82 113 226t-63 226t-238 82t-316 -76l125 764h778l-26 -184h-588l-57 -363q72 31 198 31z" />
    <glyph glyph-name="six" unicode="6" 
d="M590 147q135 0 230 84q96 83 114 217t-53 218q-72 84 -207 84q-136 0 -230 -84t-112 -217t52 -218q71 -84 206 -84zM748 922q176 0 296 -119t88 -345t-192 -354t-372 -129q-212 0 -338 130t-97 337q18 123 67 216q48 93 140 212l448 580h232l-445 -561h9q74 33 164 33z
" />
    <glyph glyph-name="seven" unicode="7" 
d="M199 0l768 1278h-701l25 172h911l-24 -168l-758 -1282h-221z" />
    <glyph glyph-name="eight" unicode="8" 
d="M593 147q120 0 208 75t105 198q16 122 -52 192t-188 70t-210 -76t-106 -194t54 -192q70 -73 189 -73zM694 856q106 0 174 67t82 165t-41 162q-55 65 -152 65t-173 -65t-89 -160q-13 -94 40 -164t159 -70zM566 -25q-204 0 -322 120t-88 321q18 131 108 226t217 128v6
q-88 25 -143 112q-54 86 -34 236t158 250t314 100t286 -100t90 -250t-101 -236q-80 -87 -177 -112v-6q117 -33 182 -128t46 -226q-28 -201 -180 -321t-356 -120z" />
    <glyph glyph-name="nine" unicode="9" 
d="M752 1303q-134 0 -230 -84q-94 -83 -112 -217t52 -218t206 -84q134 0 230 84t114 217t-54 217t-206 85zM594 528q-176 0 -295 119t-87 345t190 355q159 128 371 128t339 -130t96 -337q-16 -123 -64 -215t-140 -213l-449 -580h-231l444 561h-8q-74 -33 -166 -33z" />
    <glyph glyph-name="colon" unicode=":" horiz-adv-x="569" 
d="M322 258q56 0 89 -40t25 -95t-53 -95t-100 -40t-90 40t-27 95t54 95t102 40zM385 713q-55 0 -90 40t-27 95t54 95t100 40q55 0 90 -40t27 -95q-7 -55 -53 -95t-101 -40z" />
    <glyph glyph-name="semicolon" unicode=";" horiz-adv-x="569" 
d="M422 981q55 0 90 -40t27 -95q-7 -55 -53 -95t-101 -40t-90 40t-27 95t54 95t100 40zM471 233l-244 -503h-168l213 503h199z" />
    <glyph glyph-name="less" unicode="&#x3c;" horiz-adv-x="1363" 
d="M1264 248l-23 -160l-1030 449l22 168l1158 450l-23 -162l-977 -372z" />
    <glyph glyph-name="equal" unicode="=" horiz-adv-x="1363" 
d="M211 539h1094l-23 -160h-1094zM256 860h1094l-23 -160h-1094z" />
    <glyph glyph-name="greater" unicode="&#x3e;" horiz-adv-x="1363" 
d="M274 993l23 160l1030 -448l-22 -168l-1158 -451l23 162l979 373z" />
    <glyph glyph-name="question" unicode="?" horiz-adv-x="1024" 
d="M563 258q55 0 89 -40t26 -95t-53 -95t-101 -40t-90 40t-26 95t54 95t101 40zM684 406h-197l17 124q17 123 85 194q27 26 69 62t74 62q32 27 44 38t38 35q85 78 103 193q12 76 -41 138q-54 62 -150 62t-167 -62q-72 -62 -100 -167l-205 21q51 176 187 278q135 102 315 102
t281 -100q101 -102 77 -270t-121 -254l-164 -145q-77 -68 -99 -104t-34 -117z" />
    <glyph glyph-name="at" unicode="@" horiz-adv-x="1638" 
d="M1026 1352q-244 0 -440 -182t-235 -450q-38 -270 114 -446t412 -176q151 0 285 54t220 153h162q-106 -154 -300 -248t-392 -94q-324 0 -514 222q-190 221 -145 539t299 540t556 223q302 0 480 -178q178 -177 142 -433t-218 -422t-344 -167q-55 0 -87 35t-24 96h-8
q-143 -131 -271 -131t-192 92q-63 92 -45 229q29 213 182 379t353 166q168 0 196 -156h5l49 117h149l-250 -567q-31 -68 -8 -89q12 -11 43 -12q90 0 188 122q97 122 119 280q33 232 -102 368t-379 136zM1004 993q-137 0 -234 -112q-96 -113 -118 -274t124 -161
q117 0 215 120t117 247q10 78 -16 129q-27 51 -88 51z" />
    <glyph glyph-name="A" unicode="A" horiz-adv-x="1441" 
d="M518 530h549l-176 666h-4zM2 0l844 1450h178l416 -1450h-230l-94 358h-690l-195 -358h-229z" />
    <glyph glyph-name="B" unicode="B" horiz-adv-x="1290" 
d="M696 172q72 0 139 16t133 76t76 154q16 126 -58 192t-218 66h-291l-69 -504h288zM770 848q121 0 203 52t96 154t-35 164q-49 60 -162 60h-309l-61 -430h268zM895 1450q197 0 305 -92t84 -271q-35 -236 -295 -319l-2 -4q131 -10 208 -112t56 -249q-27 -187 -187 -295
t-380 -108h-498l205 1450h504z" />
    <glyph glyph-name="C" unicode="C" horiz-adv-x="1441" 
d="M864 147q242 0 408 195l149 -125q-59 -67 -158 -131q-194 -123 -421 -123t-385 113q-158 114 -223 282t-37 355q47 340 288 557q242 217 576 217q151 0 279 -57t198 -168l-182 -125q-49 77 -137 121t-191 45q-240 0 -413 -169t-207 -414t89 -409q125 -164 367 -164z" />
    <glyph glyph-name="D" unicode="D" horiz-adv-x="1517" 
d="M625 184q261 0 457 142t233 399q14 63 -12 222q-19 117 -138 219q-51 44 -140 72t-202 28h-295l-151 -1082h248zM864 1450q147 0 264 -35t188 -93q157 -128 189 -290q41 -203 19 -307q-41 -288 -274 -502q-112 -103 -274 -163t-349 -60h-473l204 1450h506z" />
    <glyph glyph-name="E" unicode="E" horiz-adv-x="1251" 
d="M186 0l205 1450h936l-27 -184h-739l-61 -432h688l-25 -185h-688l-65 -465h776l-27 -184h-973z" />
    <glyph glyph-name="F" unicode="F" horiz-adv-x="1175" 
d="M186 0l205 1450h912l-27 -184h-715l-63 -455h665l-26 -184h-666l-88 -627h-197z" />
    <glyph glyph-name="G" unicode="G" horiz-adv-x="1593" 
d="M866 -37q-356 0 -534 220t-133 544t288 542q244 218 588 218t500 -189l-160 -149q-137 154 -381 154t-418 -167t-208 -412t103 -411q139 -166 369 -166t375 76l58 404h-322l27 184h518l-100 -715q-111 -61 -271 -97t-299 -36z" />
    <glyph glyph-name="H" unicode="H" horiz-adv-x="1517" 
d="M186 0l205 1450h197l-86 -602h751l86 602h197l-205 -1450h-196l94 664h-752l-94 -664h-197z" />
    <glyph glyph-name="I" unicode="I" horiz-adv-x="569" 
d="M186 0l205 1450h197l-205 -1450h-197z" />
    <glyph glyph-name="J" unicode="J" horiz-adv-x="987" 
d="M707 477l137 973h196l-147 -1036q-48 -343 -348 -430q-70 -20 -139 -21q-158 0 -249 81t-100 237l199 43q6 -84 51 -130t125 -47q230 0 275 330z" />
    <glyph glyph-name="K" unicode="K" horiz-adv-x="1327" 
d="M186 0l205 1450h197l-88 -627h16l729 627h275l-795 -670l637 -780h-287l-573 725h-17l-102 -725h-197z" />
    <glyph glyph-name="L" unicode="L" horiz-adv-x="1062" 
d="M186 0l205 1450h197l-178 -1266h665l-26 -184h-863z" />
    <glyph glyph-name="M" unicode="M" horiz-adv-x="1855" 
d="M172 0l205 1450h293l305 -1098h8l612 1098h293l-205 -1450h-196l168 1192h-4l-658 -1192h-131l-321 1192h-4l-168 -1192h-197z" />
    <glyph glyph-name="N" unicode="N" horiz-adv-x="1630" 
d="M186 0l205 1450h258l631 -1192h4l168 1192h197l-205 -1450h-250l-639 1192h-4l-168 -1192h-197z" />
    <glyph glyph-name="O" unicode="O" horiz-adv-x="1703" 
d="M872 147q244 0 419 167t210 411t-94 411t-373 167t-418 -167t-208 -411t92 -411q128 -167 372 -167zM846 -37q-330 0 -512 218t-135 544q45 326 288 544q244 218 574 218t512 -218t136 -544q-45 -326 -289 -544t-574 -218z" />
    <glyph glyph-name="P" unicode="P" horiz-adv-x="1214" 
d="M756 811q309 0 344 233q20 142 -72 192q-75 42 -207 42h-258l-65 -467h258zM901 1450q354 0 406 -264q41 -226 -129 -411q-58 -62 -158 -99t-234 -37h-313l-90 -639h-197l205 1450h510z" />
    <glyph glyph-name="Q" unicode="Q" horiz-adv-x="1703" 
d="M868 184q234 0 407 164t207 400t-98 396q-132 159 -359 159q-228 0 -404 -159q-176 -160 -210 -394t94 -400q129 -166 363 -166zM848 0q-313 0 -503 211q-189 211 -144 530t289 533q246 213 560 213t500 -209t142 -516q-27 -190 -138 -352t-276 -234v-4h430l-25 -172
h-835z" />
    <glyph glyph-name="R" unicode="R" horiz-adv-x="1251" 
d="M756 811q309 0 344 233q20 142 -72 192q-75 42 -207 42h-258l-65 -467h258zM901 1450q354 0 406 -264q12 -66 2 -142q-20 -144 -135 -254t-277 -128l320 -662h-246l-279 639h-219l-90 -639h-197l205 1450h510z" />
    <glyph glyph-name="S" unicode="S" 
d="M566 147q100 0 199 66t113 166t-51 153q-66 53 -167 84t-200 72t-160 139q-60 98 -38 251t167 281q144 128 382 128q283 0 395 -166l-180 -145q-30 57 -94 92t-148 35q-147 0 -224 -69t-88 -148q-20 -144 113 -206q58 -28 132 -51q183 -57 274 -119q57 -40 86 -116
t15 -182q-29 -205 -191 -327t-377 -122q-145 1 -261 51t-173 150l182 139q39 -76 116 -116q78 -40 178 -40z" />
    <glyph glyph-name="T" unicode="T" horiz-adv-x="1175" 
d="M489 0l179 1266h-467l26 184h1131l-27 -184h-467l-178 -1266h-197z" />
    <glyph glyph-name="U" unicode="U" horiz-adv-x="1441" 
d="M741 147q186 0 293 126q106 126 131 288l125 889h197l-131 -920q-35 -250 -217 -408t-424 -159q-242 0 -379 159t-103 408l132 920h196l-125 -889q-14 -100 4 -188t96 -157t205 -69z" />
    <glyph glyph-name="V" unicode="V" horiz-adv-x="1290" 
d="M547 0l-354 1450h227l260 -1180h4l608 1180h215l-776 -1450h-184z" />
    <glyph glyph-name="W" unicode="W" horiz-adv-x="1970" 
d="M426 0l-219 1450h205l155 -1159h4l506 1159h226l178 -1159h4l483 1159h205l-627 -1450h-207l-186 1184h-4l-516 -1184h-207z" />
    <glyph glyph-name="X" unicode="X" horiz-adv-x="1327" 
d="M-4 0l633 762l-389 688h252l296 -557l453 557h246l-582 -686l426 -764h-258l-328 629l-505 -629h-244z" />
    <glyph glyph-name="Y" unicode="Y" horiz-adv-x="1253" 
d="M528 0l86 618l-430 832h252l305 -637l498 637h240l-668 -832l-86 -618h-197z" />
    <glyph glyph-name="Z" unicode="Z" horiz-adv-x="1214" 
d="M66 0l26 184l977 1082h-801l27 184h1046l-26 -184l-973 -1082h834l-27 -184h-1083z" />
    <glyph glyph-name="bracketleft" unicode="[" horiz-adv-x="569" 
d="M102 -319l256 1818h357l-19 -135h-184l-219 -1548h184l-18 -135h-357z" />
    <glyph glyph-name="backslash" unicode="\" horiz-adv-x="796" 
d="M641 -90l-432 1577l149 53l433 -1577z" />
    <glyph glyph-name="bracketright" unicode="]" horiz-adv-x="569" 
d="M20 -319l19 135h184l219 1548h-184l18 135h357l-256 -1818h-357z" />
    <glyph glyph-name="asciicircum" unicode="^" horiz-adv-x="1363" 
d="M244 565l561 885h164l311 -885h-170l-248 723l-448 -723h-170z" />
    <glyph glyph-name="underscore" unicode="_" horiz-adv-x="1024" 
d="M-37 -256l14 102h1024l-14 -102h-1024z" />
    <glyph glyph-name="grave" unicode="`" horiz-adv-x="491" 
d="M373 1450l170 -295h-170l-262 295h262z" />
    <glyph glyph-name="a" unicode="a" horiz-adv-x="1062" 
d="M729 467q-387 0 -414 -186q-20 -158 187 -158q141 0 221 85t96 198l8 61h-98zM654 995q218 0 306 -93t68 -230l-70 -496q-12 -84 -16 -176h-164q2 49 15 147h-5q-135 -172 -364 -172q-141 0 -227 78t-68 213q25 176 182 256q158 80 400 80h135l6 41q12 82 -40 143
t-163 62q-66 0 -126 -20t-84 -36t-81 -55l-96 115q174 143 392 143z" />
    <glyph glyph-name="b" unicode="b" horiz-adv-x="1251" 
d="M664 147q145 1 245 95t122 244t-52 243q-74 94 -219 94q-146 0 -246 -94t-122 -244t53 -244q74 -94 219 -94zM805 995q221 0 337 -144q116 -145 85 -365t-188 -365t-377 -146q-100 0 -186 44t-128 120h-4l-20 -139h-185l217 1548h185l-101 -717h4q60 76 158 120t203 44z
" />
    <glyph glyph-name="c" unicode="c" horiz-adv-x="987" 
d="M601 -25q-228 1 -350 141t-91 365q33 225 193 369q161 144 389 144t350 -154l-158 -127q-86 109 -228 109t-236 -100t-114 -242t54 -237t215 -95t249 108l113 -131q-158 -150 -386 -150z" />
    <glyph glyph-name="d" unicode="d" horiz-adv-x="1251" 
d="M629 147q145 1 245 95t122 244t-52 243q-74 94 -219 94t-245 -94t-122 -244t52 -244t219 -94zM582 -25q-221 -1 -337 145t-85 366t187 365q157 144 378 144q104 0 190 -44t125 -120h4l101 717h184l-217 -1548h-184l20 139h-4q-66 -76 -164 -120t-198 -44z" />
    <glyph glyph-name="e" unicode="e" 
d="M702 848q-132 0 -232 -90q-98 -90 -112 -193h582q14 127 -46 205t-192 78zM632 135q140 0 279 146l125 -107q-180 -199 -458 -199q-225 1 -342 145t-86 364t193 366q163 145 380 145q123 0 212 -45q89 -46 130 -118q94 -166 59 -349l-8 -65h-778q-18 -123 68 -203
t226 -80z" />
    <glyph glyph-name="f" unicode="f" horiz-adv-x="681" 
d="M764 1573q78 0 135 -14l-43 -164q-44 18 -120 18t-116 -53t-55 -166l-30 -223h219l-23 -160h-221l-115 -811h-184l115 811h-209l22 160h209l31 217q27 199 117 292t268 93z" />
    <glyph glyph-name="g" unicode="g" horiz-adv-x="1251" 
d="M725 823q-145 0 -245 -94q-100 -95 -122 -243t52 -237t221 -89t246 89q97 89 119 237t-52 243q-74 94 -219 94zM584 -12q-213 0 -334 142t-90 358t187 362q157 145 378 145q100 0 186 -44t129 -120h4l21 140h184l-135 -963q-33 -221 -199 -360t-403 -140q-285 0 -451 175
l148 155q127 -158 319 -158t287 97q94 96 115 239l20 144h-6q-60 -84 -158 -128t-202 -44z" />
    <glyph glyph-name="h" unicode="h" 
d="M786 995q152 0 240 -94t61 -276l-88 -625h-184l80 573q18 129 -35 189q-54 60 -162 61q-108 0 -195 -81t-110 -242l-69 -500h-185l217 1548h185l-103 -727h4q46 78 140 126t204 48z" />
    <glyph glyph-name="i" unicode="i" horiz-adv-x="491" 
d="M450 1454q56 0 91 -40t25 -95t-54 -95q-45 -40 -100 -40t-89 40t-26 95t53 95q44 40 100 40zM154 0l137 971h184l-137 -971h-184z" />
    <glyph glyph-name="j" unicode="j" horiz-adv-x="491" 
d="M450 1454q56 0 91 -40t25 -95t-54 -95q-45 -40 -100 -40t-89 40t-26 95t53 95q44 40 100 40zM-27 -319q137 0 162 188l156 1102h184l-158 -1110q-43 -352 -346 -353q-68 0 -114 19l43 170q45 -16 73 -16z" />
    <glyph glyph-name="k" unicode="k" horiz-adv-x="1062" 
d="M139 0l217 1548h185l-140 -999l476 420h256l-515 -441l418 -528h-262l-379 504l-71 -504h-185z" />
    <glyph glyph-name="l" unicode="l" horiz-adv-x="491" 
d="M154 0l217 1548h184l-217 -1548h-184z" />
    <glyph glyph-name="m" unicode="m" horiz-adv-x="1744" 
d="M766 995q211 0 278 -180q56 86 148 133t184 47q371 0 310 -430l-80 -565h-185l76 541q18 131 -14 207q-33 76 -157 76t-196 -79q-72 -78 -92 -215l-73 -530h-185l72 508q12 94 10 164t-43 110t-137 41q-96 0 -180 -82t-107 -237l-71 -504h-185l137 971h173l-23 -152h4
q25 55 122 115t214 61z" />
    <glyph glyph-name="n" unicode="n" 
d="M786 995q152 0 240 -94t61 -276l-88 -625h-184l80 573q18 129 -35 189q-54 60 -162 61q-108 0 -195 -81t-110 -242l-69 -500h-185l137 971h185l-23 -150h4q46 78 140 126t204 48z" />
    <glyph glyph-name="o" unicode="o" horiz-adv-x="1216" 
d="M748 995q216 0 346 -148q129 -147 99 -361t-201 -362t-387 -148t-345 148t-100 361q31 213 201 362q171 148 387 148zM725 823q-145 0 -245 -94t-122 -244q-22 -149 52 -243t219 -94t245 94t122 244t-52 243q-74 94 -219 94z" />
    <glyph glyph-name="p" unicode="p" horiz-adv-x="1251" 
d="M760 823q-146 0 -246 -94t-122 -244q-22 -149 52 -243t220 -94t245 94q100 94 122 244t-52 243q-74 94 -219 94zM805 995q221 0 337 -145q116 -146 85 -366t-188 -364t-377 -145q-104 0 -190 44t-124 120h-4l-102 -717h-185l219 1549h185l-21 -140h4q64 76 162 120
t199 44z" />
    <glyph glyph-name="q" unicode="q" horiz-adv-x="1251" 
d="M725 823q-145 0 -245 -94t-122 -244q-22 -149 52 -243t219 -94t245 94t122 244t-52 243q-74 94 -219 94zM582 -25q-221 1 -337 145t-85 364t187 366q157 145 378 145q100 0 186 -44t129 -120h4l21 140h184l-202 -1438h-185l86 606h-4q-58 -76 -158 -120t-204 -44z" />
    <glyph glyph-name="r" unicode="r" horiz-adv-x="757" 
d="M758 995q45 0 80 -12l-35 -199q-53 14 -88 15q-279 0 -324 -312l-67 -487h-185l137 971h185l-23 -150h4q44 76 134 125t182 49z" />
    <glyph glyph-name="s" unicode="s" horiz-adv-x="909" 
d="M573 823q-69 1 -119 -29t-56 -67q-11 -61 23 -91t72 -41t80 -21q178 -39 244 -104q65 -64 49 -178t-86 -186q-128 -130 -352 -131q-125 0 -210 39t-140 133l155 115q98 -115 220 -115q79 0 143 32q89 44 70 133q-4 20 -22 34t-28 24q-12 10 -42 18q-30 9 -40 13t-76 18
q-124 27 -202 85q-79 58 -59 197t140 217t269 77q235 1 309 -159l-157 -109q-63 96 -185 96z" />
    <glyph glyph-name="t" unicode="t" horiz-adv-x="757" 
d="M566 147q76 0 124 29l-22 -168q-62 -33 -158 -33q-164 0 -229 70q-25 27 -33 78t-5 86t11 96l72 506h-213l22 160h213l37 272h184l-37 -272h265l-23 -160h-264l-64 -440q-6 -57 -9 -107t25 -83q28 -34 104 -34z" />
    <glyph glyph-name="u" unicode="u" 
d="M1137 971l-138 -971h-184l21 150h-5q-47 -78 -140 -126t-204 -49q-153 -1 -239 93t-60 278l88 625h185l-82 -574q-31 -247 199 -249q110 0 195 80q85 81 108 243l71 500h185z" />
    <glyph glyph-name="v" unicode="v" horiz-adv-x="1024" 
d="M418 0l-258 971h213l186 -744l383 744h197l-518 -971h-203z" />
    <glyph glyph-name="w" unicode="w" horiz-adv-x="1554" 
d="M342 0l-182 971h207l116 -725h4l334 725h195l143 -725h4l312 725h194l-450 -971h-187l-153 725h-5l-333 -725h-199z" />
    <glyph glyph-name="x" unicode="x" horiz-adv-x="1062" 
d="M12 0l467 518l-280 453h237l187 -344l280 344h223l-395 -453l320 -518h-238l-229 408l-344 -408h-228z" />
    <glyph glyph-name="y" unicode="y" horiz-adv-x="1024" 
d="M160 -492q-118 0 -180 27l47 168q51 -23 119 -23t110 38q43 38 88 122l82 154l-266 977h213l182 -758h4l381 758h199l-627 -1180q-80 -147 -157 -215t-195 -68z" />
    <glyph glyph-name="z" unicode="z" horiz-adv-x="948" 
d="M72 0l22 166l643 645h-532l22 160h758l-24 -164l-646 -647h584l-22 -160h-805z" />
    <glyph glyph-name="braceleft" unicode="{" horiz-adv-x="681" 
d="M721 1352q-104 0 -129 -178l-45 -310q-10 -86 -54 -150q-69 -101 -155 -122l-2 -6q48 -4 88 -49q39 -44 47 -95t-2 -131l-43 -307q-20 -176 80 -176h92l-20 -147h-154q-86 -1 -138 79t-32 234l37 274q12 112 -27 176t-110 64l22 160q72 0 128 64t77 175l45 324
q16 123 93 195t161 73h154l-21 -147h-92z" />
    <glyph glyph-name="bar" unicode="|" horiz-adv-x="768" 
d="M412 1702h151v-2267h-151v2267z" />
    <glyph glyph-name="braceright" unicode="}" horiz-adv-x="681" 
d="M127 -172q104 0 129 178l45 309q14 125 82 192t127 81l2 6q-49 4 -88 48t-47 95t2 131l43 308q20 176 -80 176h-92l20 147h154q86 0 138 -80t32 -233l-37 -275q-16 -109 25 -175t112 -64l-22 -160q-72 0 -131 -66t-74 -174l-47 -323q-16 -123 -92 -196t-160 -72h-154
l21 147h92z" />
    <glyph glyph-name="asciitilde" unicode="~" horiz-adv-x="1363" 
d="M971 467q-79 0 -225 74t-209 73q-96 0 -193 -147l-63 127q131 180 297 180q94 0 287 -110q68 -39 126 -39q105 -1 203 149l63 -127q-129 -180 -286 -180z" />
    <glyph glyph-name="uni00A0" unicode="&#xa0;" horiz-adv-x="569" 
 />
    <glyph glyph-name="exclamdown" unicode="&#xa1;" horiz-adv-x="569" 
d="M389 737q-55 0 -90 40t-27 95q8 56 54 96t100 40q55 0 90 -40t27 -96q-7 -55 -53 -95t-101 -40zM127 -455l145 1033h197l-145 -1033h-197z" />
    <glyph glyph-name="cent" unicode="&#xa2;" 
d="M608 135l99 701q-125 -18 -206 -116t-99 -230t35 -232q54 -100 171 -123zM817 836l-98 -701q131 4 233 107l103 -119q-133 -131 -359 -148l-18 -135h-111l19 135q-199 21 -299 163q-99 142 -71 348t166 343t347 166l21 135h110l-20 -135q217 -10 321 -155l-151 -121
q-76 113 -193 117z" />
    <glyph glyph-name="sterling" unicode="&#xa3;" 
d="M1015 1475q214 0 326 -127l-143 -144q-88 98 -198 98t-198 -79q-89 -80 -112 -248l-22 -156h331l-20 -147h-332l-69 -500h503l-24 -172h-910l25 172h209l70 500h-197l20 147h197l29 205q29 190 165 320t350 131z" />
    <glyph glyph-name="currency" unicode="&#xa4;" 
d="M621 360q151 0 273 108t143 260t-71 258q-92 108 -243 108t-273 -108t-144 -259t71 -259q92 -108 244 -108zM748 1253q168 0 292 -100l115 98l100 -114l-114 -101q80 -133 57 -309q-27 -174 -143 -309l86 -101l-133 -116l-86 100q-150 -100 -322 -100t-297 100l-115 -100
l-100 116l115 101q-83 139 -59 308t145 310l-86 101l133 114l86 -98q158 100 326 100z" />
    <glyph glyph-name="yen" unicode="&#xa5;" 
d="M483 0l54 381h-351l19 135h350l16 109l-26 57h-316l19 135h233l-286 633h204l275 -647l471 647h209l-471 -633h237l-18 -135h-316l-43 -57l-16 -109h350l-18 -135h-350l-54 -381h-172z" />
    <glyph glyph-name="brokenbar" unicode="&#xa6;" horiz-adv-x="765" 
d="M412 397h149v-792h-149v792zM412 1532h149v-795h-149v795z" />
    <glyph glyph-name="section" unicode="&#xa7;" 
d="M764 741l-152 78q-160 -59 -174 -162q-12 -81 43 -129q39 -34 129 -79l148 -76q55 33 97 81t49 97t-16 88q-24 39 -50 57q-27 18 -74 45zM520 -295q-330 0 -399 248l190 84q29 -160 232 -160q87 0 153 44t79 139t-187 188q-84 39 -166 83q-82 45 -135 113t-41 156
q29 211 243 309q-150 92 -128 245t159 243q136 90 280 90q144 1 240 -51t129 -154l-184 -94q-35 123 -190 127q-85 0 -149 -41t-74 -113t44 -123t138 -89t167 -81q83 -42 134 -118t37 -179q-25 -178 -207 -268q119 -90 97 -252t-162 -254t-300 -92z" />
    <glyph glyph-name="dieresis" unicode="&#xa8;" horiz-adv-x="491" 
d="M659 1462q49 0 84 -34t27 -86t-49 -88q-41 -38 -96 -38t-86 38q-31 36 -23 88t51 86t92 34zM242 1462q49 0 84 -34q34 -34 26 -86t-49 -88q-41 -38 -96 -38t-86 38q-31 36 -23 88t52 86t92 34z" />
    <glyph glyph-name="copyright" unicode="&#xa9;" horiz-adv-x="1638" 
d="M295 725q-37 -260 121 -443q158 -184 418 -184t469 184t245 443q37 260 -121 443q-157 184 -417 184t-469 -184t-246 -443zM862 264q-211 0 -314 128q-102 128 -74 341t164 339t349 126q156 0 249 -81t95 -232h-157q-20 166 -205 166q-143 0 -229 -83q-86 -84 -105 -228
t47 -236t201 -92q188 0 247 174h158q-53 -146 -167 -234t-259 -88zM1028 1487q315 0 508 -223q194 -222 148 -538t-301 -540t-570 -223q-315 0 -507 223q-191 224 -146 539t299 539t569 223z" />
    <glyph glyph-name="ordfeminine" unicode="&#xaa;" horiz-adv-x="690" 
d="M653 1147q-167 0 -223 -23q-71 -26 -78 -82q-10 -74 111 -73q84 0 131 38t57 101l6 39h-4zM645 1245h25l4 21q6 42 -27 70t-98 28q-111 0 -193 -68l-59 93q111 86 269 86q158 -1 206 -55q49 -54 37 -148l-55 -402h-136l13 91l-4 2q-63 -104 -219 -105q-90 0 -148 46
q-57 46 -46 124q21 150 172 189q114 28 259 28z" />
    <glyph glyph-name="guillemotleft" unicode="&#xab;" horiz-adv-x="1024" 
d="M809 55l-238 443l361 442l115 -84l-291 -358l192 -359zM403 55l-237 443l360 442l115 -84l-291 -358l193 -359z" />
    <glyph glyph-name="logicalnot" unicode="&#xac;" horiz-adv-x="1363" 
d="M1350 860l-80 -571h-160l57 411h-934l23 160h1094z" />
    <glyph glyph-name="uni00AD" unicode="&#xad;" horiz-adv-x="647" 
d="M657 582l-24 -172h-504l25 172h503z" />
    <glyph glyph-name="registered" unicode="&#xae;" horiz-adv-x="1638" 
d="M295 725q-37 -260 121 -443q158 -184 418 -184t469 184t245 443q37 260 -121 443q-157 184 -417 184t-469 -184t-246 -443zM1028 1487q315 0 508 -223q194 -222 148 -538t-301 -540t-570 -223q-315 0 -507 223q-191 224 -146 539t299 539t569 223zM913 786q63 0 101 6
t77 34q38 28 46 83t-23 84q-32 29 -68 34t-98 3h-117l-34 -244h116zM1026 1165q154 1 222 -67t50 -186q-16 -118 -82 -177t-161 -71l174 -369h-168l-166 356h-117l-51 -356h-160l123 870h336z" />
    <glyph glyph-name="macron" unicode="&#xaf;" horiz-adv-x="491" 
d="M733 1364l-20 -135h-590l20 135h590z" />
    <glyph glyph-name="degree" unicode="&#xb0;" horiz-adv-x="819" 
d="M599 1339q-71 0 -129 -49t-67 -121q-10 -73 34 -121t115 -48t127 50t65 120t-32 119q-42 50 -113 50zM532 864q-126 0 -204 89q-76 89 -60 216q18 127 120 216t229 89q126 0 203 -90t60 -215q-18 -125 -120 -215t-228 -90z" />
    <glyph glyph-name="plusminus" unicode="&#xb1;" horiz-adv-x="1363" 
d="M150 104l22 160h1094l-23 -160h-1093zM225 645l23 160h467l47 334h160l-48 -334h467l-22 -160h-467l-43 -307h-160l43 307h-467z" />
    <glyph glyph-name="twosuperior" unicode="&#xb2;" horiz-adv-x="739" 
d="M137 592l21 156l413 327q105 87 113 145t-26 89t-92 31t-100 -34q-42 -32 -54 -87l-172 12q27 117 120 180q94 63 228 63t210 -62q77 -64 58 -183q-16 -129 -180 -254l-324 -248h436l-18 -135h-633z" />
    <glyph glyph-name="threesuperior" unicode="&#xb3;" horiz-adv-x="739" 
d="M479 1112q55 0 92 6t70 34t39 77q8 49 -25 80t-92 30q-106 0 -153 -92l-166 41q86 184 338 186q120 0 198 -60t62 -169q-10 -72 -60 -126t-127 -70v-5q84 -10 124 -69t28 -141q-15 -119 -117 -187t-235 -67q-266 0 -295 202l176 41q16 -109 137 -108q66 0 117 37
q51 38 60 104t-46 94t-145 27h-35l18 135h37z" />
    <glyph glyph-name="acute" unicode="&#xb4;" horiz-adv-x="491" 
d="M272 1155l256 295h263l-349 -295h-170z" />
    <glyph glyph-name="mu" unicode="&#xb5;" 
d="M74 -467l202 1438h185l-82 -574q-31 -247 199 -249q110 0 195 80q85 81 108 243l71 500h185l-138 -971h-184l21 150h-5q-47 -78 -140 -126t-195 -48t-170 36l-68 -479h-184z" />
    <glyph glyph-name="paragraph" unicode="&#xb6;" horiz-adv-x="1228" 
d="M776 1450h510l-242 -1708h-159l221 1573h-229l-222 -1573h-159l129 909q-186 0 -292 109q-105 109 -83 270q27 200 168 310t358 110z" />
    <glyph glyph-name="periodcentered" unicode="&#xb7;" horiz-adv-x="569" 
d="M391 756q55 0 90 -40t27 -95t-54 -95t-102 -41q-56 0 -89 40q-33 41 -25 96t53 95t100 40z" />
    <glyph glyph-name="cedilla" unicode="&#xb8;" horiz-adv-x="491" 
d="M158 -369q125 0 137 86q10 70 -56 81q-67 11 -128 -13l-37 37l149 178h101l-109 -125h59q78 2 128 -37t40 -110q-14 -100 -97 -148t-193 -47q-110 0 -201 47l51 82q72 -31 156 -31z" />
    <glyph glyph-name="onesuperior" unicode="&#xb9;" horiz-adv-x="739" 
d="M399 592l103 735l-195 -147l-74 94l291 201h146l-123 -883h-148z" />
    <glyph glyph-name="ordmasculine" unicode="&#xba;" horiz-adv-x="790" 
d="M586 1352q-90 0 -146 -50t-69 -136t29 -136q42 -49 132 -49t147 49q56 49 69 135q12 87 -30 137t-132 50zM602 1475q154 0 234 -85q80 -84 60 -224t-124 -224q-102 -84 -256 -84t-234 84t-59 224t123 224t256 85z" />
    <glyph glyph-name="guillemotright" unicode="&#xbb;" horiz-adv-x="1024" 
d="M356 940l236 -442l-359 -443l-114 84l289 359l-191 358zM762 940l235 -442l-358 -443l-115 84l289 359l-190 358z" />
    <glyph glyph-name="onequarter" unicode="&#xbc;" horiz-adv-x="1708" 
d="M412 592l102 735l-195 -147l-73 94l291 201h145l-123 -883h-147zM311 0l1112 1516l115 -66l-1112 -1516zM1411 328l55 383h-4l-293 -383h242zM1378 0l27 193h-401l16 118l457 572h161l-79 -555h127l-19 -135h-127l-27 -193h-135z" />
    <glyph glyph-name="onehalf" unicode="&#xbd;" horiz-adv-x="1708" 
d="M287 0l1112 1516l114 -66l-1112 -1516zM1441 748q-59 0 -101 -33t-54 -88l-170 12q27 117 121 180t226 63t209 -62q77 -64 59 -189t-181 -248l-323 -248h436l-18 -135h-633l22 156l412 327q104 83 112 143t-25 91q-34 31 -92 31zM408 592l102 735l-195 -147l-73 94
l290 201h146l-123 -883h-147z" />
    <glyph glyph-name="threequarters" unicode="&#xbe;" horiz-adv-x="1708" 
d="M477 1112q55 0 92 6t70 34t39 77q8 49 -25 80t-92 30q-106 0 -153 -92l-166 41q86 184 338 186q120 0 198 -60t62 -169q-10 -72 -60 -126t-127 -70v-5q84 -10 124 -69t28 -141q-15 -119 -117 -187t-235 -67q-266 0 -295 202l176 41q16 -109 137 -108q66 0 117 37
q51 38 60 104t-46 94t-145 27h-35l18 135h37zM393 0l1112 1516l115 -66l-1112 -1516zM1464 328l56 383h-4l-293 -383h241zM1419 0l27 193h-402l17 118l457 572h161l-80 -555h127l-18 -135h-127l-27 -193h-135z" />
    <glyph glyph-name="questiondown" unicode="&#xbf;" horiz-adv-x="1024" 
d="M602 737q-55 0 -90 40t-27 95q7 56 53 96t101 40t90 -40t27 -96q-8 -55 -54 -95t-100 -40zM437 -319q95 0 168 63t100 166l204 -21q-51 -176 -187 -278q-136 -103 -315 -103t-281 102t-78 269q24 168 122 254l164 146q76 67 98 103t35 118l12 90h197l-17 -125
q-17 -126 -82 -194q-36 -36 -113 -99q-89 -73 -131 -116q-73 -73 -86 -161q-13 -89 41 -151t149 -63z" />
    <glyph glyph-name="Agrave" unicode="&#xc0;" horiz-adv-x="1441" 
d="M899 1827l172 -295h-170l-264 295h262zM518 530h549l-176 666h-4zM2 0l844 1450h178l416 -1450h-230l-94 358h-690l-195 -358h-229z" />
    <glyph glyph-name="Aacute" unicode="&#xc1;" horiz-adv-x="1441" 
d="M801 1532l254 295h262l-346 -295h-170zM518 530h549l-176 666h-4zM2 0l844 1450h178l416 -1450h-230l-94 358h-690l-195 -358h-229z" />
    <glyph glyph-name="Acircumflex" unicode="&#xc2;" horiz-adv-x="1441" 
d="M1274 1532h-187l-122 197l-181 -197h-186l270 295h217zM518 530h549l-176 666h-4zM2 0l844 1450h178l416 -1450h-230l-94 358h-690l-195 -358h-229z" />
    <glyph glyph-name="Atilde" unicode="&#xc3;" horiz-adv-x="1441" 
d="M685 1706q62 62 138 63q76 -1 160 -41q85 -41 121 -40q76 0 113 90h98q-27 -90 -83 -152t-126 -61q-70 0 -168 41t-135 41q-68 -1 -109 -91h-98q27 88 89 150zM518 530h549l-176 666h-4zM2 0l844 1450h178l416 -1450h-230l-94 358h-690l-195 -358h-229z" />
    <glyph glyph-name="Adieresis" unicode="&#xc4;" horiz-adv-x="1441" 
d="M1188 1839q49 0 84 -34q34 -34 26 -86t-49 -89t-96 -37t-86 37t-23 89t52 86t92 34zM770 1839q49 0 84 -34t27 -86q-7 -52 -49 -89t-97 -37t-86 37t-23 89t52 86q43 34 92 34zM518 530h549l-176 666h-4zM2 0l844 1450h178l416 -1450h-230l-94 358h-690l-195 -358h-229z
" />
    <glyph glyph-name="Aring" unicode="&#xc5;" horiz-adv-x="1441" 
d="M942 1575q49 0 90 33t49 82t-23 83q-32 33 -82 33t-91 -34t-49 -81q-8 -48 24 -82t82 -34zM988 1892q84 0 139 -58q54 -58 40 -142q-10 -86 -81 -144q-72 -58 -156 -59q-84 1 -138 59t-42 142t83 143t155 59zM518 530h549l-176 666h-4zM2 0l844 1450h178l416 -1450h-230
l-94 358h-690l-195 -358h-229z" />
    <glyph glyph-name="AE" unicode="&#xc6;" horiz-adv-x="1972" 
d="M614 537h516l103 729h-39zM-16 0l1142 1450h934l-26 -184h-604l-62 -432h567l-24 -185h-568l-65 -465h629l-27 -184h-825l49 352h-623l-256 -352h-241z" />
    <glyph glyph-name="Ccedilla" unicode="&#xc7;" horiz-adv-x="1441" 
d="M864 147q242 0 408 195l149 -125q-59 -67 -158 -131q-194 -123 -427 -123q-16 0 -25 2l-80 -90h60q78 2 128 -37t39 -110q-14 -100 -97 -148t-193 -47q-110 0 -201 47l51 82q72 -31 156 -31q125 0 137 86q10 70 -56 81q-67 11 -128 -13l-37 37l127 151q-274 43 -416 260
q-141 217 -104 480q47 340 288 557q242 217 576 217q151 0 279 -57t198 -168l-182 -125q-49 77 -137 121t-191 45q-240 0 -413 -169t-207 -414t89 -409q125 -164 367 -164z" />
    <glyph glyph-name="Egrave" unicode="&#xc8;" horiz-adv-x="1251" 
d="M805 1827l172 -295h-170l-264 295h262zM186 0l205 1450h936l-27 -184h-739l-61 -432h688l-25 -185h-688l-65 -465h776l-27 -184h-973z" />
    <glyph glyph-name="Eacute" unicode="&#xc9;" horiz-adv-x="1251" 
d="M707 1532l254 295h262l-346 -295h-170zM186 0l205 1450h936l-27 -184h-739l-61 -432h688l-25 -185h-688l-65 -465h776l-27 -184h-973z" />
    <glyph glyph-name="Ecircumflex" unicode="&#xca;" horiz-adv-x="1251" 
d="M1180 1532h-187l-123 197l-180 -197h-186l270 295h217zM186 0l205 1450h936l-27 -184h-739l-61 -432h688l-25 -185h-688l-65 -465h776l-27 -184h-973z" />
    <glyph glyph-name="Edieresis" unicode="&#xcb;" horiz-adv-x="1251" 
d="M1094 1839q49 0 84 -34q34 -34 26 -86t-49 -89t-96 -37t-86 37t-23 89t51 86q44 34 93 34zM676 1839q49 0 84 -34q34 -34 26 -86t-49 -89t-96 -37t-86 37t-23 89t52 86t92 34zM186 0l205 1450h936l-27 -184h-739l-61 -432h688l-25 -185h-688l-65 -465h776l-27 -184h-973z
" />
    <glyph glyph-name="Igrave" unicode="&#xcc;" horiz-adv-x="569" 
d="M463 1827l172 -295h-170l-264 295h262zM186 0l205 1450h197l-205 -1450h-197z" />
    <glyph glyph-name="Iacute" unicode="&#xcd;" horiz-adv-x="569" 
d="M365 1532l253 295h263l-346 -295h-170zM186 0l205 1450h197l-205 -1450h-197z" />
    <glyph glyph-name="Icircumflex" unicode="&#xce;" horiz-adv-x="569" 
d="M838 1532h-187l-123 197l-180 -197h-186l270 295h217zM186 0l205 1450h197l-205 -1450h-197z" />
    <glyph glyph-name="Idieresis" unicode="&#xcf;" horiz-adv-x="569" 
d="M752 1839q49 0 84 -34q34 -34 26 -86t-49 -89t-96 -37t-86 37t-23 89t51 86q44 34 93 34zM334 1839q49 0 84 -34q34 -34 26 -86t-49 -89t-96 -37t-86 37t-23 89t52 86t92 34zM186 0l205 1450h197l-205 -1450h-197z" />
    <glyph glyph-name="Eth" unicode="&#xd0;" horiz-adv-x="1517" 
d="M625 184q261 0 457 142t233 399q14 63 -12 222q-19 117 -138 219q-51 44 -140 72t-202 28h-295l-61 -443h479l-20 -135h-480l-69 -504h248zM864 1450q147 0 264 -35t188 -93q157 -128 189 -290q41 -203 19 -307q-41 -288 -274 -502q-112 -103 -274 -163t-349 -60h-473
l96 688h-148l21 135h147l88 627h506z" />
    <glyph glyph-name="Ntilde" unicode="&#xd1;" horiz-adv-x="1630" 
d="M779 1706q61 62 141 63q80 0 198 -59q44 -22 80 -22q76 0 113 90h98q-27 -90 -83 -152t-126 -61q-70 0 -168 41t-135 41q-68 -1 -109 -91h-98q27 88 89 150zM186 0l205 1450h258l631 -1192h4l168 1192h197l-205 -1450h-250l-639 1192h-4l-168 -1192h-197z" />
    <glyph glyph-name="Ograve" unicode="&#xd2;" horiz-adv-x="1703" 
d="M1030 1827l172 -295h-170l-264 295h262zM872 147q244 0 419 167t210 411t-94 411t-373 167t-418 -167t-208 -411t92 -411q128 -167 372 -167zM846 -37q-330 0 -512 218t-135 544q45 326 288 544q244 218 574 218t512 -218t136 -544q-45 -326 -289 -544t-574 -218z" />
    <glyph glyph-name="Oacute" unicode="&#xd3;" horiz-adv-x="1703" 
d="M932 1532l254 295h262l-346 -295h-170zM872 147q244 0 419 167t210 411t-94 411t-373 167t-418 -167t-208 -411t92 -411q128 -167 372 -167zM846 -37q-330 0 -512 218t-135 544q45 326 288 544q244 218 574 218t512 -218t136 -544q-45 -326 -289 -544t-574 -218z" />
    <glyph glyph-name="Ocircumflex" unicode="&#xd4;" horiz-adv-x="1703" 
d="M1405 1532h-186l-123 197l-181 -197h-186l270 295h218zM872 147q244 0 419 167t210 411t-94 411t-373 167t-418 -167t-208 -411t92 -411q128 -167 372 -167zM846 -37q-330 0 -512 218t-135 544q45 326 288 544q244 218 574 218t512 -218t136 -544q-45 -326 -289 -544
t-574 -218z" />
    <glyph glyph-name="Otilde" unicode="&#xd5;" horiz-adv-x="1703" 
d="M816 1706q62 62 138 63q76 -1 160 -41q85 -40 121 -40q76 0 113 90h98q-27 -90 -83 -152q-57 -62 -127 -61q-70 0 -168 41t-134 41q-68 -1 -109 -91h-98q27 88 89 150zM872 147q244 0 419 167t210 411t-94 411t-373 167t-418 -167t-208 -411t92 -411q128 -167 372 -167z
M846 -37q-330 0 -512 218t-135 544q45 326 288 544q244 218 574 218t512 -218t136 -544q-45 -326 -289 -544t-574 -218z" />
    <glyph glyph-name="Odieresis" unicode="&#xd6;" horiz-adv-x="1703" 
d="M1319 1839q49 0 84 -34t27 -86t-50 -89t-96 -37q-55 0 -86 37q-30 37 -22 89t51 86t92 34zM901 1839q49 0 84 -34t27 -86t-49 -89t-97 -37t-86 37t-22 89t51 86t92 34zM872 147q244 0 419 167t210 411t-94 411t-373 167t-418 -167t-208 -411t92 -411q128 -167 372 -167z
M846 -37q-330 0 -512 218t-135 544q45 326 288 544q244 218 574 218t512 -218t136 -544q-45 -326 -289 -544t-574 -218z" />
    <glyph glyph-name="multiply" unicode="&#xd7;" horiz-adv-x="1363" 
d="M166 188l491 433l-374 434l129 112l372 -434l498 434l94 -112l-493 -434l372 -435l-131 -112l-370 434l-494 -434z" />
    <glyph glyph-name="Oslash" unicode="&#xd8;" horiz-adv-x="1703" 
d="M1061 1487q270 0 448 -156l197 185l76 -78l-197 -185q168 -211 123 -533t-289 -539q-244 -218 -573 -218q-276 0 -455 162l-198 -186l-78 77l200 191q-159 211 -115 527t287 535q244 218 574 218zM1034 1303q-244 0 -418 -167q-174 -168 -206 -396t63 -386l885 834
q-131 115 -324 115zM872 147q244 0 419 167q175 168 207 400t-71 392l-886 -838q131 -121 331 -121z" />
    <glyph glyph-name="Ugrave" unicode="&#xd9;" horiz-adv-x="1441" 
d="M899 1827l172 -295h-170l-264 295h262zM741 147q186 0 293 126q106 126 131 288l125 889h197l-131 -920q-35 -250 -217 -408t-424 -159q-242 0 -379 159t-103 408l132 920h196l-125 -889q-14 -100 4 -188t96 -157t205 -69z" />
    <glyph glyph-name="Uacute" unicode="&#xda;" horiz-adv-x="1441" 
d="M801 1532l254 295h262l-346 -295h-170zM741 147q186 0 293 126q106 126 131 288l125 889h197l-131 -920q-35 -250 -217 -408t-424 -159q-242 0 -379 159t-103 408l132 920h196l-125 -889q-14 -100 4 -188t96 -157t205 -69z" />
    <glyph glyph-name="Ucircumflex" unicode="&#xdb;" horiz-adv-x="1441" 
d="M1274 1532h-187l-122 197l-181 -197h-186l270 295h217zM741 147q186 0 293 126q106 126 131 288l125 889h197l-131 -920q-35 -250 -217 -408t-424 -159q-242 0 -379 159t-103 408l132 920h196l-125 -889q-14 -100 4 -188t96 -157t205 -69z" />
    <glyph glyph-name="Udieresis" unicode="&#xdc;" horiz-adv-x="1441" 
d="M1188 1839q49 0 84 -34q34 -34 26 -86t-49 -89t-96 -37t-86 37t-23 89t52 86t92 34zM770 1839q49 0 84 -34t27 -86q-7 -52 -49 -89t-97 -37t-86 37t-23 89t52 86q43 34 92 34zM741 147q186 0 293 126q106 126 131 288l125 889h197l-131 -920q-35 -250 -217 -408
t-424 -159q-242 0 -379 159t-103 408l132 920h196l-125 -889q-14 -100 4 -188t96 -157t205 -69z" />
    <glyph glyph-name="Yacute" unicode="&#xdd;" horiz-adv-x="1253" 
d="M707 1532l254 295h262l-346 -295h-170zM528 0l86 618l-430 832h252l305 -637l498 637h240l-668 -832l-86 -618h-197z" />
    <glyph glyph-name="Thorn" unicode="&#xde;" horiz-adv-x="1214" 
d="M713 514q313 0 344 234q20 133 -60 183t-219 50h-258l-65 -467h258zM858 1153q354 0 406 -264q26 -141 -39 -283q-120 -264 -482 -264h-313l-47 -342h-197l205 1450h197l-43 -297h313z" />
    <glyph glyph-name="germandbls" unicode="&#xdf;" horiz-adv-x="1251" 
d="M840 1573q158 0 264 -98t82 -273q-18 -123 -90 -205t-183 -112l-2 -4q137 -20 227 -130q90 -109 60 -313q-29 -204 -185 -334q-157 -129 -376 -129q-74 0 -141 19l22 166q49 -12 107 -13q154 0 257 85t125 238q21 154 -67 234t-246 80h-28l24 172h33q104 0 176 60t87 170
q15 109 -45 162t-155 53q-266 0 -313 -336l-149 -1065h-185l148 1042q32 234 137 372q121 159 416 159z" />
    <glyph glyph-name="agrave" unicode="&#xe0;" horiz-adv-x="1062" 
d="M659 1450l170 -295h-170l-262 295h262zM729 467q-387 0 -414 -186q-20 -158 187 -158q141 0 221 85t96 198l8 61h-98zM654 995q218 0 306 -93t68 -230l-70 -496q-12 -84 -16 -176h-164q2 49 15 147h-5q-135 -172 -364 -172q-141 0 -227 78t-68 213q25 176 182 256
q158 80 400 80h135l6 41q12 82 -40 143t-163 62q-66 0 -126 -20t-84 -36t-81 -55l-96 115q174 143 392 143z" />
    <glyph glyph-name="aacute" unicode="&#xe1;" horiz-adv-x="1062" 
d="M559 1155l256 295h262l-348 -295h-170zM729 467q-387 0 -414 -186q-20 -158 187 -158q141 0 221 85t96 198l8 61h-98zM654 995q218 0 306 -93t68 -230l-70 -496q-12 -84 -16 -176h-164q2 49 15 147h-5q-135 -172 -364 -172q-141 0 -227 78t-68 213q25 176 182 256
q158 80 400 80h135l6 41q12 82 -40 143t-163 62q-66 0 -126 -20t-84 -36t-81 -55l-96 115q174 143 392 143z" />
    <glyph glyph-name="acircumflex" unicode="&#xe2;" horiz-adv-x="1062" 
d="M1032 1155h-186l-123 197l-180 -197h-187l273 295h217zM729 467q-387 0 -414 -186q-20 -158 187 -158q141 0 221 85t96 198l8 61h-98zM654 995q218 0 306 -93t68 -230l-70 -496q-12 -84 -16 -176h-164q2 49 15 147h-5q-135 -172 -364 -172q-141 0 -227 78t-68 213
q25 176 182 256q158 80 400 80h135l6 41q12 82 -40 143t-163 62q-66 0 -126 -20t-84 -36t-81 -55l-96 115q174 143 392 143z" />
    <glyph glyph-name="atilde" unicode="&#xe3;" horiz-adv-x="1062" 
d="M862 1311q76 0 113 90h98q-27 -89 -82 -151t-127 -62t-166 41q-96 41 -137 41q-67 0 -108 -90h-99q27 88 90 150t134 62q92 2 204 -58q42 -22 80 -23zM729 467q-387 0 -414 -186q-20 -158 187 -158q141 0 221 85t96 198l8 61h-98zM654 995q218 0 306 -93t68 -230
l-70 -496q-12 -84 -16 -176h-164q2 49 15 147h-5q-135 -172 -364 -172q-141 0 -227 78t-68 213q25 176 182 256q158 80 400 80h135l6 41q12 82 -40 143t-163 62q-66 0 -126 -20t-84 -36t-81 -55l-96 115q174 143 392 143z" />
    <glyph glyph-name="adieresis" unicode="&#xe4;" horiz-adv-x="1062" 
d="M946 1462q49 0 84 -34t27 -86t-49 -88q-40 -38 -96 -38t-87 38q-31 36 -23 88t52 86q43 34 92 34zM528 1462q49 0 84 -34t27 -86t-49 -88q-41 -38 -96 -38t-86 38q-31 36 -23 88t51 86t92 34zM729 467q-387 0 -414 -186q-20 -158 187 -158q141 0 221 85t96 198l8 61h-98z
M654 995q218 0 306 -93t68 -230l-70 -496q-12 -84 -16 -176h-164q2 49 15 147h-5q-135 -172 -364 -172q-141 0 -227 78t-68 213q25 176 182 256q158 80 400 80h135l6 41q12 82 -40 143t-163 62q-66 0 -126 -20t-84 -36t-81 -55l-96 115q174 143 392 143z" />
    <glyph glyph-name="aring" unicode="&#xe5;" horiz-adv-x="1062" 
d="M736 1450q-50 0 -91 -34t-48 -82t26 -82t82 -34t90 34t48 82t-25 82t-82 34zM749 1536q85 0 139 -58t43 -144t-82 -143q-71 -58 -156 -58t-139 58t-44 142q12 83 83 143t156 60zM729 467q-387 0 -414 -186q-20 -158 187 -158q141 0 221 85t96 198l8 61h-98zM654 995
q218 0 306 -93t68 -230l-70 -496q-12 -84 -16 -176h-164q2 49 15 147h-5q-135 -172 -364 -172q-141 0 -227 78t-68 213q25 176 182 256q158 80 400 80h135l6 41q12 82 -40 143t-163 62q-66 0 -126 -20t-84 -36t-81 -55l-96 115q174 143 392 143z" />
    <glyph glyph-name="ae" unicode="&#xe6;" horiz-adv-x="1744" 
d="M1022 565h526q29 270 -221 271q-125 0 -207 -77t-98 -194zM539 418q-203 0 -224 -142q-8 -70 44 -118t154 -47t198 77t114 201l4 29h-290zM1251 123q168 0 275 153l133 -112q-103 -102 -205 -152t-229 -49q-260 0 -351 199q-172 -199 -425 -199q-184 0 -267 93
q-82 93 -64 211t90 186q73 69 160 91t195 21h287l4 31q14 108 -40 180t-181 72t-277 -111l-98 117q176 141 413 141t320 -155q160 156 361 155q106 -1 185 -35t117 -90q91 -133 87 -252q-2 -63 -4 -114l-13 -86h-723q-18 -123 49 -209t201 -86z" />
    <glyph glyph-name="ccedilla" unicode="&#xe7;" horiz-adv-x="987" 
d="M462 -467q-110 0 -202 47l51 82q70 -31 156 -31q125 0 137 86q10 70 -56 81q-67 11 -128 -13l-37 37l135 162q-190 23 -289 158q-98 136 -67 350t191 358q161 144 389 144t350 -154l-158 -127q-86 109 -228 109t-236 -100t-114 -242t54 -237t215 -95t249 108l113 -131
q-150 -143 -375 -148l-88 -102h60q78 2 128 -37t40 -110q-14 -100 -98 -148q-82 -48 -192 -47z" />
    <glyph glyph-name="egrave" unicode="&#xe8;" 
d="M696 1450l170 -295h-170l-262 295h262zM702 848q-132 0 -232 -90q-98 -90 -112 -193h582q14 127 -46 205t-192 78zM632 135q140 0 279 146l125 -107q-180 -199 -458 -199q-225 1 -342 145t-86 364t193 366q163 145 380 145q123 0 212 -45q89 -46 130 -118
q94 -166 59 -349l-8 -65h-778q-18 -123 68 -203t226 -80z" />
    <glyph glyph-name="eacute" unicode="&#xe9;" 
d="M596 1155l256 295h262l-348 -295h-170zM702 848q-132 0 -232 -90q-98 -90 -112 -193h582q14 127 -46 205t-192 78zM632 135q140 0 279 146l125 -107q-180 -199 -458 -199q-225 1 -342 145t-86 364t193 366q163 145 380 145q123 0 212 -45q89 -46 130 -118
q94 -166 59 -349l-8 -65h-778q-18 -123 68 -203t226 -80z" />
    <glyph glyph-name="ecircumflex" unicode="&#xea;" 
d="M1069 1155h-186l-123 197l-180 -197h-187l273 295h217zM702 848q-132 0 -232 -90q-98 -90 -112 -193h582q14 127 -46 205t-192 78zM632 135q140 0 279 146l125 -107q-180 -199 -458 -199q-225 1 -342 145t-86 364t193 366q163 145 380 145q123 0 212 -45q89 -46 130 -118
q94 -166 59 -349l-8 -65h-778q-18 -123 68 -203t226 -80z" />
    <glyph glyph-name="edieresis" unicode="&#xeb;" 
d="M983 1462q49 0 84 -34t27 -86t-50 -88q-42 -38 -96 -38q-55 0 -86 38q-30 36 -22 88t51 86t92 34zM565 1462q49 0 84 -34t27 -86t-49 -88q-41 -38 -97 -38t-86 38q-30 36 -22 88t51 86t92 34zM702 848q-132 0 -232 -90q-98 -90 -112 -193h582q14 127 -46 205t-192 78z
M632 135q140 0 279 146l125 -107q-180 -199 -458 -199q-225 1 -342 145t-86 364t193 366q163 145 380 145q123 0 212 -45q89 -46 130 -118q94 -166 59 -349l-8 -65h-778q-18 -123 68 -203t226 -80z" />
    <glyph glyph-name="igrave" unicode="&#xec;" horiz-adv-x="491" 
d="M373 1450l170 -295h-170l-262 295h262zM154 0l137 971h184l-137 -971h-184z" />
    <glyph glyph-name="iacute" unicode="&#xed;" horiz-adv-x="491" 
d="M272 1155l256 295h263l-349 -295h-170zM154 0l137 971h184l-137 -971h-184z" />
    <glyph glyph-name="icircumflex" unicode="&#xee;" horiz-adv-x="491" 
d="M745 1155h-186l-123 197l-180 -197h-186l272 295h217zM154 0l137 971h184l-137 -971h-184z" />
    <glyph glyph-name="idieresis" unicode="&#xef;" horiz-adv-x="491" 
d="M659 1462q49 0 84 -34t27 -86t-49 -88q-41 -38 -96 -38t-86 38q-31 36 -23 88t51 86t92 34zM242 1462q49 0 84 -34q34 -34 26 -86t-49 -88q-41 -38 -96 -38t-86 38q-31 36 -23 88t52 86t92 34zM154 0l137 971h184l-137 -971h-184z" />
    <glyph glyph-name="eth" unicode="&#xf0;" horiz-adv-x="1216" 
d="M725 823q-145 0 -245 -94t-122 -244q-22 -149 52 -243t219 -94t245 94t122 244t-52 243q-74 94 -219 94zM618 -25q-228 1 -358 149q-129 148 -100 361q31 213 201 362q171 148 387 148q168 0 241 -102l6 4q-74 172 -243 369l-234 -107l-84 94l232 109l-154 145l176 95
l160 -160l235 106l95 -90l-246 -112q154 -193 228 -383t39 -432q-33 -242 -193 -399t-388 -157z" />
    <glyph glyph-name="ntilde" unicode="&#xf1;" 
d="M899 1311q76 0 113 90h98q-27 -89 -82 -151q-54 -62 -126 -62t-168 41t-136 41q-68 0 -109 -90h-98q27 88 90 150t134 62q92 2 204 -58q42 -22 80 -23zM786 995q152 0 240 -94t61 -276l-88 -625h-184l80 573q18 129 -35 189q-54 60 -162 61q-108 0 -195 -81t-110 -242
l-69 -500h-185l137 971h185l-23 -150h4q46 78 140 126t204 48z" />
    <glyph glyph-name="ograve" unicode="&#xf2;" horiz-adv-x="1216" 
d="M735 1450l170 -295h-170l-262 295h262zM748 995q216 0 346 -148q129 -147 99 -361t-201 -362t-387 -148t-345 148t-100 361q31 213 201 362q171 148 387 148zM725 823q-145 0 -245 -94t-122 -244q-22 -149 52 -243t219 -94t245 94t122 244t-52 243q-74 94 -219 94z" />
    <glyph glyph-name="oacute" unicode="&#xf3;" horiz-adv-x="1216" 
d="M635 1155l256 295h262l-348 -295h-170zM748 995q216 0 346 -148q129 -147 99 -361t-201 -362t-387 -148t-345 148t-100 361q31 213 201 362q171 148 387 148zM725 823q-145 0 -245 -94t-122 -244q-22 -149 52 -243t219 -94t245 94t122 244t-52 243q-74 94 -219 94z" />
    <glyph glyph-name="ocircumflex" unicode="&#xf4;" horiz-adv-x="1216" 
d="M1108 1155h-186l-123 197l-181 -197h-186l273 295h217zM748 995q216 0 346 -148q129 -147 99 -361t-201 -362t-387 -148t-345 148t-100 361q31 213 201 362q171 148 387 148zM725 823q-145 0 -245 -94t-122 -244q-22 -149 52 -243t219 -94t245 94t122 244t-52 243
q-74 94 -219 94z" />
    <glyph glyph-name="otilde" unicode="&#xf5;" horiz-adv-x="1216" 
d="M938 1311q76 0 113 90h98q-27 -89 -82 -151t-127 -62t-166 41q-96 41 -137 41q-68 0 -109 -90h-98q27 88 90 150t144 63t194 -60q44 -22 80 -22zM748 995q216 0 346 -148q129 -147 99 -361t-201 -362t-387 -148t-345 148t-100 361q31 213 201 362q171 148 387 148z
M725 823q-145 0 -245 -94t-122 -244q-22 -149 52 -243t219 -94t245 94t122 244t-52 243q-74 94 -219 94z" />
    <glyph glyph-name="odieresis" unicode="&#xf6;" horiz-adv-x="1216" 
d="M1022 1462q49 0 84 -34t27 -86q-7 -52 -49 -88q-42 -38 -97 -38t-86 38q-31 36 -23 88t52 86q43 34 92 34zM604 1462q49 0 84 -34t27 -86t-49 -88q-40 -38 -96 -38t-87 38q-31 36 -23 88t52 86q43 34 92 34zM748 995q216 0 346 -148q129 -147 99 -361t-201 -362
t-387 -148t-345 148t-100 361q31 213 201 362q171 148 387 148zM725 823q-145 0 -245 -94t-122 -244q-22 -149 52 -243t219 -94t245 94t122 244t-52 243q-74 94 -219 94z" />
    <glyph glyph-name="divide" unicode="&#xf7;" horiz-adv-x="1363" 
d="M739 410q55 0 90 -40t27 -96t-53 -95q-45 -40 -101 -40t-90 40t-26 95q8 56 53 96t100 40zM836 1098q56 0 90 -40t26 -95t-53 -95t-100 -41q-55 1 -90 41t-27 95t53 95t101 40zM233 698h1094l-22 -159h-1094z" />
    <glyph glyph-name="oslash" unicode="&#xf8;" horiz-adv-x="1216" 
d="M977 668l-522 -465q67 -55 193 -55t226 94t121 243q17 105 -18 183zM736 995q204 0 327 -118l176 153l64 -74l-177 -155q90 -135 64 -332t-198 -345q-171 -148 -388 -149q-170 0 -293 101l-159 -142l-66 74l156 139q-111 139 -81 345t200 355q171 148 375 148zM389 276
l535 476q-76 72 -210 72t-234 -95t-120 -233t29 -220z" />
    <glyph glyph-name="ugrave" unicode="&#xf9;" 
d="M696 1450l170 -295h-170l-262 295h262zM1137 971l-138 -971h-184l21 150h-5q-47 -78 -140 -126t-204 -49q-153 -1 -239 93t-60 278l88 625h185l-82 -574q-31 -247 199 -249q110 0 195 80q85 81 108 243l71 500h185z" />
    <glyph glyph-name="uacute" unicode="&#xfa;" 
d="M596 1155l256 295h262l-348 -295h-170zM1137 971l-138 -971h-184l21 150h-5q-47 -78 -140 -126t-204 -49q-153 -1 -239 93t-60 278l88 625h185l-82 -574q-31 -247 199 -249q110 0 195 80q85 81 108 243l71 500h185z" />
    <glyph glyph-name="ucircumflex" unicode="&#xfb;" 
d="M1069 1155h-186l-123 197l-180 -197h-187l273 295h217zM1137 971l-138 -971h-184l21 150h-5q-47 -78 -140 -126t-204 -49q-153 -1 -239 93t-60 278l88 625h185l-82 -574q-31 -247 199 -249q110 0 195 80q85 81 108 243l71 500h185z" />
    <glyph glyph-name="udieresis" unicode="&#xfc;" 
d="M983 1462q49 0 84 -34t27 -86t-50 -88q-42 -38 -96 -38q-55 0 -86 38q-30 36 -22 88t51 86t92 34zM565 1462q49 0 84 -34t27 -86t-49 -88q-41 -38 -97 -38t-86 38q-30 36 -22 88t51 86t92 34zM1137 971l-138 -971h-184l21 150h-5q-47 -78 -140 -126t-204 -49
q-153 -1 -239 93t-60 278l88 625h185l-82 -574q-31 -247 199 -249q110 0 195 80q85 81 108 243l71 500h185z" />
    <glyph glyph-name="yacute" unicode="&#xfd;" horiz-adv-x="1024" 
d="M539 1155l256 295h262l-348 -295h-170zM160 -492q-118 0 -180 27l47 168q51 -23 119 -23t110 38q43 38 88 122l82 154l-266 977h213l182 -758h4l381 758h199l-627 -1180q-80 -147 -157 -215t-195 -68z" />
    <glyph glyph-name="thorn" unicode="&#xfe;" horiz-adv-x="1251" 
d="M664 147q145 1 245 95t122 244t-52 243q-74 94 -219 94q-146 0 -246 -94t-122 -244t53 -244q74 -94 219 -94zM805 995q221 0 337 -144q116 -145 85 -365t-188 -365t-377 -146q-100 0 -186 44t-128 120h-4l-86 -606h-184l282 2015h185l-101 -717h4q60 76 158 120t203 44z
" />
    <glyph glyph-name="ydieresis" unicode="&#xff;" horiz-adv-x="1024" 
d="M926 1462q49 0 84 -34q34 -34 26 -86t-49 -88q-41 -38 -96 -38t-86 38q-31 36 -23 88t52 86t92 34zM508 1462q49 0 84 -34q34 -34 26 -86t-49 -88q-41 -38 -96 -38t-86 38q-31 36 -23 88t52 86q43 34 92 34zM160 -492q-118 0 -180 27l47 168q51 -23 119 -23t110 38
q43 38 88 122l82 154l-266 977h213l182 -758h4l381 758h199l-627 -1180q-80 -147 -157 -215t-195 -68z" />
    <glyph glyph-name="dotlessi" unicode="&#x131;" horiz-adv-x="491" 
d="M154 0l137 971h184l-137 -971h-184z" />
    <glyph glyph-name="Lslash" unicode="&#x141;" horiz-adv-x="1062" 
d="M186 0l60 428l-164 -129l24 182l166 127l119 842h197l-96 -672l497 385l-26 -182l-496 -383l-57 -414h665l-26 -184h-863z" />
    <glyph glyph-name="lslash" unicode="&#x142;" horiz-adv-x="491" 
d="M154 0l86 610l-183 -159l27 184l182 160l105 753h184l-80 -569l182 158l-26 -185l-180 -157l-113 -795h-184z" />
    <glyph glyph-name="OE" unicode="&#x152;" horiz-adv-x="2009" 
d="M1120 1266q-289 0 -473 -156t-217 -390q-34 -234 106 -386q140 -150 433 -150h125l151 1082h-125zM956 0q-392 0 -586 201t-148 529t298 524t641 196h910l-27 -184h-602l-62 -432h566l-25 -185h-565l-66 -465h627l-27 -184h-934z" />
    <glyph glyph-name="oe" unicode="&#x153;" horiz-adv-x="1896" 
d="M592 135q172 0 262 99q90 100 111 248q20 148 -43 250t-214 104q-151 0 -246 -98q-94 -98 -116 -251q-22 -151 42 -251t204 -101zM1476 848q-122 0 -212 -92t-103 -191h539q12 113 -45 198t-179 85zM1366 -25q-127 -1 -226 47t-145 142q-43 -49 -83 -83t-134 -70
t-209 -36q-229 -1 -341 143t-81 366t192 366t397 145q236 0 356 -186q164 186 407 186q207 0 313 -135t76 -352l-12 -90h-735q-16 -119 45 -201q62 -82 216 -82t263 141l137 -100q-168 -201 -436 -201z" />
    <glyph glyph-name="Scaron" unicode="&#x160;" 
d="M676 1532l-189 295h179l133 -197l178 197h186l-270 -295h-217zM566 147q100 0 199 66t113 166t-51 153q-66 53 -167 84t-200 72t-160 139q-60 98 -38 251t167 281q144 128 382 128q283 0 395 -166l-180 -145q-30 57 -94 92t-148 35q-147 0 -224 -69t-88 -148
q-20 -144 113 -206q58 -28 132 -51q183 -57 274 -119q57 -40 86 -116t15 -182q-29 -205 -191 -327t-377 -122q-145 1 -261 51t-173 150l182 139q39 -76 116 -116q78 -40 178 -40z" />
    <glyph glyph-name="scaron" unicode="&#x161;" horiz-adv-x="909" 
d="M508 1155l-186 295h178l131 -197l180 197h186l-272 -295h-217zM573 823q-69 1 -119 -29t-56 -67q-11 -61 23 -91t72 -41t80 -21q178 -39 244 -104q65 -64 49 -178t-86 -186q-128 -130 -352 -131q-125 0 -210 39t-140 133l155 115q98 -115 220 -115q79 0 143 32
q89 44 70 133q-4 20 -22 34t-28 24q-12 10 -42 18q-30 9 -40 13t-76 18q-124 27 -202 85q-79 58 -59 197t140 217t269 77q235 1 309 -159l-157 -109q-63 96 -185 96z" />
    <glyph glyph-name="Ydieresis" unicode="&#x178;" horiz-adv-x="1253" 
d="M1094 1839q49 0 84 -34q34 -34 26 -86t-49 -89t-96 -37t-86 37t-23 89t51 86q44 34 93 34zM676 1839q49 0 84 -34q34 -34 26 -86t-49 -89t-96 -37t-86 37t-23 89t52 86t92 34zM528 0l86 618l-430 832h252l305 -637l498 637h240l-668 -832l-86 -618h-197z" />
    <glyph glyph-name="Zcaron" unicode="&#x17d;" horiz-adv-x="1214" 
d="M715 1532l-189 295h179l133 -197l178 197h186l-270 -295h-217zM66 0l26 184l977 1082h-801l27 184h1046l-26 -184l-973 -1082h834l-27 -184h-1083z" />
    <glyph glyph-name="zcaron" unicode="&#x17e;" horiz-adv-x="948" 
d="M528 1155l-186 295h178l131 -197l180 197h187l-273 -295h-217zM72 0l22 166l643 645h-532l22 160h758l-24 -164l-646 -647h584l-22 -160h-805z" />
    <glyph glyph-name="florin" unicode="&#x192;" 
d="M146 -295q-112 0 -205 51l98 146q61 -25 112 -25t92 33q40 34 55 66t32 83l223 664h-221l20 147h250l96 289q46 141 144 229t230 87q132 0 216 -50l-104 -153q-38 31 -106 31q-144 0 -212 -205l-69 -228h245l-20 -147h-274l-256 -754q-42 -121 -138 -193t-208 -71z" />
    <glyph glyph-name="circumflex" unicode="&#x2c6;" horiz-adv-x="491" 
d="M745 1155h-186l-123 197l-180 -197h-186l272 295h217z" />
    <glyph glyph-name="caron" unicode="&#x2c7;" horiz-adv-x="491" 
d="M299 1155l-186 295h178l131 -197l180 197h186l-272 -295h-217z" />
    <glyph glyph-name="uni02C9" unicode="&#x2c9;" horiz-adv-x="491" 
d="M733 1364l-20 -135h-590l20 135h590z" />
    <glyph glyph-name="breve" unicode="&#x2d8;" horiz-adv-x="491" 
d="M429 1290q81 0 144 37t89 111h108q-29 -137 -126 -210t-236 -73t-215 73t-66 210h113q2 -74 55 -111t134 -37z" />
    <glyph glyph-name="dotaccent" unicode="&#x2d9;" horiz-adv-x="491" 
d="M416 1217q-55 1 -86 37t-23 88t51 86q42 34 92 34t85 -34t27 -86t-50 -88q-41 -37 -96 -37z" />
    <glyph glyph-name="ring" unicode="&#x2da;" horiz-adv-x="491" 
d="M450 1450q-50 0 -92 -34t-48 -82q-7 -48 26 -82t82 -34t90 34t48 82t-25 82q-31 34 -81 34zM462 1536q85 0 139 -58t43 -144t-82 -143q-72 -58 -156 -58t-139 58q-54 58 -44 142q12 83 83 143t156 60z" />
    <glyph glyph-name="ogonek" unicode="&#x2db;" horiz-adv-x="491" 
d="M200 -453q-94 0 -145 46t-43 128q20 145 232 293h110q-176 -150 -190 -256q-2 -88 88 -88q49 0 102 39l33 -90q-93 -72 -187 -72z" />
    <glyph glyph-name="tilde" unicode="&#x2dc;" horiz-adv-x="491" 
d="M575 1311q76 0 113 90h98q-27 -90 -81 -152q-55 -61 -127 -61t-168 41t-136 41q-67 0 -108 -90h-98q27 88 90 150t144 63t194 -60q44 -22 79 -22z" />
    <glyph glyph-name="hungarumlaut" unicode="&#x2dd;" horiz-adv-x="491" 
d="M406 1155l256 295h260l-349 -295h-167zM59 1155l256 295h260l-348 -295h-168z" />
    <glyph glyph-name="uni03A9" unicode="&#x3a9;" horiz-adv-x="1466" 
d="M416 145v7q-102 108 -156 270t-27 360q41 297 244 491q203 193 470 193t405 -200q137 -201 98 -473q-29 -205 -132 -374t-233 -267v-7h304l-21 -145h-502l15 109q137 81 245 249t142 400q18 139 -11 264t-115 210q-87 85 -220 85q-195 0 -337 -162t-175 -391
q-33 -228 29 -404t173 -251l-14 -109h-504l21 145h301z" />
    <glyph glyph-name="uni03BC" unicode="&#x3bc;" 
d="M74 -467l202 1438h185l-82 -574q-31 -247 199 -249q110 0 195 80q85 81 108 243l71 500h185l-138 -971h-184l21 150h-5q-47 -78 -140 -126t-195 -48t-170 36l-68 -479h-184z" />
    <glyph glyph-name="pi" unicode="&#x3c0;" horiz-adv-x="1181" 
d="M471 1077h825l-39 -153h-159l-86 -619q-27 -186 -15 -305h-172q-25 63 6 291l89 633h-351q-39 -215 -121 -500t-155 -424h-172q78 164 158 438t114 486q-156 0 -223 -25l-10 119q94 59 311 59z" />
    <glyph glyph-name="endash" unicode="&#x2013;" horiz-adv-x="1024" 
d="M1106 578l-23 -160h-1024l23 160h1024z" />
    <glyph glyph-name="emdash" unicode="&#x2014;" horiz-adv-x="2048" 
d="M2130 578l-23 -160h-2048l23 160h2048z" />
    <glyph glyph-name="quoteleft" unicode="&#x2018;" horiz-adv-x="569" 
d="M248 946l244 504h167l-213 -504h-198z" />
    <glyph glyph-name="quoteright" unicode="&#x2019;" horiz-adv-x="569" 
d="M659 1450l-243 -504h-168l213 504h198z" />
    <glyph glyph-name="quotesinglbase" unicode="&#x201a;" horiz-adv-x="569" 
d="M487 233l-243 -503h-168l213 503h198z" />
    <glyph glyph-name="quotedblleft" unicode="&#x201c;" horiz-adv-x="1062" 
d="M1087 1450l-213 -504h-198l244 504h167zM725 1450l-213 -504h-199l244 504h168z" />
    <glyph glyph-name="quotedblright" unicode="&#x201d;" horiz-adv-x="1062" 
d="M1087 1450l-243 -504h-168l213 504h198zM725 1450l-244 -504h-168l213 504h199z" />
    <glyph glyph-name="quotedblbase" unicode="&#x201e;" horiz-adv-x="1062" 
d="M915 233l-243 -503h-168l213 503h198zM553 233l-244 -503h-168l213 503h199z" />
    <glyph glyph-name="dagger" unicode="&#x2020;" 
d="M440 -258l160 1132h-405l22 160h406l59 416h184l-59 -416h405l-22 -160h-406l-159 -1132h-185z" />
    <glyph glyph-name="daggerdbl" unicode="&#x2021;" 
d="M440 -258l56 393h-394l23 160h393l88 627h-393l23 159h393l53 369h184l-53 -369h393l-22 -159h-393l-89 -627h394l-23 -160h-393l-55 -393h-185z" />
    <glyph glyph-name="bullet" unicode="&#x2022;" horiz-adv-x="1024" 
d="M667 1087q151 0 241 -106t68 -257t-142 -256q-120 -106 -272 -106q-150 0 -240 106t-68 258q22 151 141 256q121 105 272 105z" />
    <glyph glyph-name="ellipsis" unicode="&#x2026;" horiz-adv-x="2048" 
d="M1704 -12q-55 0 -90 40t-27 95t54 95q45 40 101 40t90 -40t26 -95t-54 -95t-100 -40zM1022 -12q-55 0 -90 40t-27 95t54 95q45 40 101 40t90 -40t26 -95t-54 -95t-100 -40zM340 -12q-55 0 -90 40t-27 95q9 55 55 95t101 40t89 -40t26 -95t-54 -95t-100 -40z" />
    <glyph glyph-name="perthousand" unicode="&#x2030;" horiz-adv-x="2162" 
d="M1430 1454l-1121 -1517l-119 63l1125 1516zM559 1327q-77 0 -139 -54t-72 -131t37 -131q47 -55 123 -55t138 54t72 132q10 77 -35 131q-46 54 -124 54zM488 809q-138 0 -222 97q-83 98 -65 237q20 139 131 235t249 96t222 -96q85 -98 65 -235t-131 -235t-249 -99z
M1804 111q76 0 139 54q62 54 72 131t-36 131t-124 54t-139 -54t-71 -131q-9 -77 37 -131t122 -54zM1783 -37q-138 -1 -221 97t-65 237q20 139 131 235t249 96t222 -96q84 -98 65 -235t-131 -235t-250 -99zM1055 111q76 0 138 54q63 54 73 131t-36 131t-124 54t-139 -54
t-71 -131t36 -131q47 -54 123 -54zM1033 -37q-138 0 -221 97q-84 96 -64 236t131 236t249 96t222 -96q84 -98 64 -235t-131 -235q-112 -98 -250 -99z" />
    <glyph glyph-name="guilsinglleft" unicode="&#x2039;" horiz-adv-x="645" 
d="M418 55l-238 443l361 442l114 -84l-290 -358l192 -359z" />
    <glyph glyph-name="guilsinglright" unicode="&#x203a;" horiz-adv-x="645" 
d="M246 55l-115 84l289 359l-191 358l140 84l235 -442z" />
    <glyph glyph-name="fraction" unicode="&#x2044;" horiz-adv-x="342" 
d="M887 1450l-1112 -1516l-115 66l1112 1516z" />
    <glyph glyph-name="Euro" unicode="&#x20ac;" 
d="M736 127q154 0 270 121l86 -101q-66 -75 -170 -123t-220 -49q-432 0 -442 496h-147l57 133h94l6 49l9 56q8 74 24 143h-135l63 137h117q88 240 255 363t361 123t308 -74l-64 -154q-84 70 -260 70q-285 0 -418 -328h566l-56 -137h-555q-14 -57 -28 -150l-6 -51l-7 -47h496
l-53 -133h-449q4 -174 74 -259t224 -85z" />
    <glyph glyph-name="afii61289" unicode="&#x2113;" horiz-adv-x="1007" 
d="M756 1460q-66 0 -125 -86t-86 -274l-60 -426q346 332 381 577q27 209 -110 209zM567 -14q-167 0 -237 103t-56 269l2 27q-10 -8 -56 -42t-70 -52l-37 100q10 7 80 61t104 83l78 555q35 260 147 382t244 121q133 0 186 -96q54 -96 30 -263q-45 -323 -521 -732l-10 -74
q-19 -152 31 -226t140 -75t168 57q79 58 136 140l69 -74q-172 -264 -428 -264z" />
    <glyph glyph-name="trademark" unicode="&#x2122;" horiz-adv-x="2048" 
d="M985 606l119 844h244l135 -647h6l319 647h244l-119 -844h-159l98 705h-4l-344 -705h-129l-148 705h-4l-98 -705h-160zM410 606l98 709h-254l20 135h668l-20 -135h-254l-99 -709h-159z" />
    <glyph glyph-name="Omega" unicode="&#x2126;" horiz-adv-x="1466" 
d="M416 145v7q-102 108 -156 270t-27 360q41 297 244 491q203 193 470 193t405 -200q137 -201 98 -473q-29 -205 -132 -374t-233 -267v-7h304l-21 -145h-502l15 109q137 81 245 249t142 400q18 139 -11 264t-115 210q-87 85 -220 85q-195 0 -337 -162t-175 -391
q-33 -228 29 -404t173 -251l-14 -109h-504l21 145h301z" />
    <glyph glyph-name="estimated" unicode="&#x212e;" horiz-adv-x="2015" 
d="M1636 758v409q0 29 -18 50q-217 213 -508 213t-506 -220q-20 -20 -20 -51v-401q0 -14 10 -15h1034q8 1 8 15zM1944 705h-1350q-10 0 -10 -11v-407q0 -25 18 -47q215 -221 510 -222q158 0 297 67t240 181h118q-113 -133 -285 -211t-372 -78q-344 -1 -588 219t-243 529
q0 309 243 529q244 220 589 220t589 -218q244 -220 244 -531v-20z" />
    <glyph glyph-name="partialdiff" unicode="&#x2202;" horiz-adv-x="1130" 
d="M520 133h2q131 0 242 150t160 356q-12 77 -81 145t-181 68t-212 -115t-122 -267t30 -245q53 -92 162 -92zM738 1624q210 0 336 -203t73 -583t-229 -617q-176 -238 -435 -237q-190 0 -274 144t-57 337q33 238 180 384t330 146q120 0 198 -61t105 -127h2q10 37 14 86
q37 252 -49 418q-86 165 -239 165t-292 -100l-39 131q166 117 376 117z" />
    <glyph glyph-name="Delta" unicode="&#x2206;" horiz-adv-x="1329" 
d="M264 145h834l-176 750q-8 47 -39 189t-37 194h-8q-16 -41 -80 -168t-88 -182zM61 0l17 117l696 1364h207l301 -1362l-16 -119h-1205z" />
    <glyph glyph-name="product" unicode="&#x220f;" horiz-adv-x="1642" 
d="M1591 1282h-221v-1481h-174v1481h-545v-1481h-176v1481h-219v162h1335v-162z" />
    <glyph glyph-name="summation" unicode="&#x2211;" horiz-adv-x="1337" 
d="M1294 -199h-1044v117l538 703l-516 698v125h990v-154h-746v-6l475 -635l-516 -674v-6h819v-168z" />
    <glyph glyph-name="minus" unicode="&#x2212;" horiz-adv-x="1363" 
d="M233 700h1094l-22 -159h-1094z" />
    <glyph glyph-name="uni2215" unicode="&#x2215;" horiz-adv-x="342" 
d="M887 1450l-1112 -1516l-115 66l1112 1516z" />
    <glyph glyph-name="uni2219" unicode="&#x2219;" horiz-adv-x="569" 
d="M391 756q55 0 90 -40t27 -95t-54 -95t-102 -41q-56 0 -89 40q-33 41 -25 96t53 95t100 40z" />
    <glyph glyph-name="radical" unicode="&#x221a;" horiz-adv-x="1388" 
d="M1393 1720l-455 -2025h-154l-321 948l-154 -59l-33 106l295 117l250 -744q23 -82 37 -155h4q14 90 29 160l373 1652h129z" />
    <glyph glyph-name="infinity" unicode="&#x221e;" horiz-adv-x="1724" 
d="M1309 817h-4q-47 0 -99 -29q-52 -28 -76 -50q-25 -22 -81 -83l-56 -59q113 -127 177 -175t149 -48q84 1 138 67t54 160t-56 156t-146 61zM559 373h2q79 0 154 59q23 18 33 26t34 32q24 26 29 31q6 5 32 34t27 31q-51 63 -71 87q-120 144 -246 144q-98 0 -153 -65
q-54 -66 -54 -160t60 -156t153 -63zM1622 600v-2q0 -146 -94 -240t-223 -94q-93 0 -179 56t-196 186q-100 -117 -188 -179q-88 -63 -206 -63q-120 0 -211 94t-91 234t92 235q94 95 216 95t212 -64q88 -64 184 -178q72 82 109 120t115 80t157 42q135 0 219 -90t84 -232z" />
    <glyph glyph-name="integral" unicode="&#x222b;" horiz-adv-x="960" 
d="M810 1638q-56 0 -91 -49q-66 -82 -66 -364q-1 -162 13 -508t14 -522q0 -285 -84 -416q-68 -117 -217 -117q-84 0 -139 33l26 129q51 -23 102 -23q154 0 152 394q0 176 -14 528t-14 522q0 169 26 273t86 168q78 84 203 83q68 1 117 -26l-27 -125q-31 20 -87 20z" />
    <glyph glyph-name="approxequal" unicode="&#x2248;" horiz-adv-x="1271" 
d="M1022 426q43 37 90 115l70 -62q-102 -199 -267 -198q-57 0 -105 19t-150 78q-185 106 -279 19q-43 -39 -92 -114l-72 61q47 92 122 146t149 54t126 -21q53 -22 82 -40t35 -21t59 -33q70 -40 130 -40q59 0 102 37zM915 637q-57 0 -105 19t-150 78t-168 59t-110 -39
t-93 -113l-72 61q47 92 122 146t158 53q83 0 155 -39q70 -32 77 -43q6 -4 29 -16t37 -21t33 -16q20 -6 38 -12t64 -6q91 0 182 151l70 -61q-102 -201 -267 -201z" />
    <glyph glyph-name="notequal" unicode="&#x2260;" horiz-adv-x="1298" 
d="M1196 846v-111h-356l-133 -297h489v-110h-534l-109 -240l-88 39l92 201h-301v110h346l133 297h-479v111h522l107 235l88 -37l-88 -198h311z" />
    <glyph glyph-name="lessequal" unicode="&#x2264;" horiz-adv-x="1323" 
d="M1221 4h-940v115h940v-115zM1214 201l-923 463v118l921 463v-133l-804 -385v-4l806 -389v-133z" />
    <glyph glyph-name="greaterequal" unicode="&#x2265;" horiz-adv-x="1323" 
d="M1219 4h-938v115h938v-115zM293 1245l924 -463v-118l-924 -463v133l805 387v4l-805 387v133z" />
    <glyph glyph-name="lozenge" unicode="&#x25ca;" horiz-adv-x="1388" 
d="M1118 717l-278 559q-25 61 -39 113h-6q-12 -49 -39 -113l-279 -551l281 -563q23 -55 37 -109h8q14 61 35 107zM1280 721l-414 -815h-143l-406 815l412 817h145z" />
    </font>
</defs>
</svg>
